<svg width="112" height="79" fill="none" xmlns="http://www.w3.org/2000/svg"><g clip-path="url(#a)"><path d="M22.805 31c0 9.941 8.059 18 18 18h27a5 5 0 0 0 5-5V10c0-5.523-4.477-10-10-10h-35a5 5 0 0 0-5 5v26Z" fill="#FFF1DA"/><path d="M71.39 44.941a11.889 11.889 0 0 0-3.888 1.655c-3.14 2.002-4.968 4.859-4.081 6.38.887 1.523 4.152 1.133 7.293-.868a12.384 12.384 0 0 0 3.19-2.852c.409-.542.482-1.218.187-1.723l-1.152-1.977c-.294-.506-.902-.747-1.55-.615ZM63.502 17.948c-.985.221-1.944.63-2.819 1.2-2.276 1.452-3.602 3.523-2.96 4.626.643 1.103 3.011.82 5.288-.63a8.988 8.988 0 0 0 2.313-2.07c.296-.393.35-.882.135-1.248l-.834-1.432c-.212-.367-.653-.542-1.123-.446Z" fill="#D5D6DB"/><path d="M50.688 19.079a1.02 1.02 0 0 0-.656.163l-5.348 3.408c-.447.285-.626.832-.4 1.223.052.09.123.166.21.225l13.181 9.085L75.51 21.82l-24.821-2.74Z" fill="#029BC5"/><path d="M107.065 17.794 58.533 48.346 29.82 59.772l-14.643 2.91-1.611-2.737L94.461 9.998c2.411-1.494 5.097-2.412 7.785-2.66a14.212 14.212 0 0 1 3.462.117 9.66 9.66 0 0 1 2.8.864c.964.478 2.799.533 3.393 1.486.002-.002 1.404 4.373-4.836 7.989Z" fill="#E1E6E9"/><path d="m59.176 44.304-20.995 33.47c-.262.47-.107.996.347 1.175.279.11.62.067.906-.115l5.344-3.39a10.486 10.486 0 0 0 2.674-2.435L88.17 25.14 59.176 44.304ZM6.197 43.186c-.35-.12-.767-.057-1.12.166L.66 46.166c-.602.383-.842 1.12-.536 1.645.059.1.134.188.225.26l12.377 9.913 13.013-8.128-19.542-6.67ZM16.874 59.771 10.213 69.1c-.098.134-.075.303.051.376.09.053.215.043.316-.024l4.128-2.616a.382.382 0 0 0 .085-.075l9.734-11.835-7.653 4.845ZM104.911 7.857a14.489 14.489 0 0 0-3.565-.118c-1.18 1.65-1.935 3.506-2.189 5.379-.018.376.285.647.678.605a.834.834 0 0 0 .353-.125l7.608-4.844a9.889 9.889 0 0 0-2.885-.897Z" fill="#029BC5"/><path d="m88.332 16.765 4.967-3.137 4.627 7.87-4.967 3.136-4.627-7.869Z" fill="#D5D6DB"/><path d="M85.207 19.878c-.599.379-.838 1.107-.534 1.627l.492.842c.324.507 1.063.596 1.651.199.56-.378.786-1.064.516-1.572l-.492-.841c-.304-.52-1.035-.634-1.633-.255ZM80.742 22.65c-.598.38-.838 1.108-.534 1.628l.493.842c.324.506 1.063.595 1.651.198.56-.377.785-1.064.516-1.571l-.493-.842c-.304-.52-1.034-.633-1.633-.255ZM76.276 25.423c-.597.38-.836 1.108-.532 1.627l.492.842c.324.507 1.063.596 1.651.199.56-.378.786-1.065.516-1.572l-.492-.841c-.304-.52-1.036-.634-1.635-.255ZM71.812 28.196c-.598.38-.836 1.107-.533 1.627l.493.842c.324.506 1.063.595 1.651.198.56-.377.785-1.064.516-1.571l-.493-.842c-.304-.52-1.035-.633-1.634-.254ZM67.348 30.968c-.598.38-.837 1.108-.533 1.628l.493.842c.303.52 1.035.633 1.633.254.598-.379.837-1.107.534-1.626l-.493-.843c-.303-.52-1.034-.634-1.633-.255ZM62.884 33.74c-.599.38-.837 1.109-.533 1.628l.492.843c.304.519 1.035.633 1.634.254.598-.38.837-1.108.533-1.627l-.492-.842c-.303-.52-1.034-.634-1.633-.256h-.001ZM58.42 36.513c-.6.38-.838 1.108-.534 1.628l.493.842c.304.519 1.036.632 1.634.252.596-.379.835-1.105.532-1.624l-.492-.842c-.304-.52-1.035-.634-1.634-.256ZM53.955 39.286c-.599.38-.837 1.108-.533 1.627l.492.843c.305.519 1.036.631 1.634.252.597-.38.835-1.106.533-1.625l-.493-.842c-.303-.52-1.035-.634-1.633-.255ZM49.49 42.058c-.598.38-.837 1.108-.533 1.628l.493.842c.304.519 1.036.632 1.634.252.596-.379.835-1.105.532-1.624l-.492-.842c-.304-.52-1.035-.634-1.634-.256ZM45.025 44.831c-.599.38-.838 1.108-.534 1.627v.001l.493.842c.304.52 1.036.632 1.634.252.597-.379.835-1.105.533-1.624l-.493-.842c-.303-.52-1.035-.634-1.633-.256ZM40.561 47.603c-.598.38-.837 1.107-.533 1.627l.493.843c.304.519 1.036.631 1.634.252.596-.379.835-1.106.532-1.624l-.492-.843c-.304-.519-1.035-.633-1.634-.255Z" fill="#3A556A"/></g><defs><clipPath id="a"><path fill="#fff" d="M0 0h112v79H0z"/></clipPath></defs></svg>