<svg width="112" height="72" fill="none" xmlns="http://www.w3.org/2000/svg"><g clip-path="url(#a)"><path d="M71.174 37.847a11.887 11.887 0 0 0-3.887 1.655c-3.14 2.002-4.968 4.858-4.08 6.38.886 1.523 4.151 1.133 7.292-.868a12.384 12.384 0 0 0 3.19-2.852c.409-.542.482-1.218.187-1.723l-1.152-1.977c-.293-.507-.901-.748-1.55-.615ZM63.287 10.854c-.985.22-1.944.63-2.818 1.2-2.277 1.451-3.603 3.523-2.96 4.626.642 1.102 3.01.82 5.287-.63a8.988 8.988 0 0 0 2.313-2.07c.297-.393.35-.882.136-1.248L64.41 11.3c-.212-.367-.653-.542-1.123-.446Z" fill="#D5D6DB"/><path d="M50.473 11.985a1.022 1.022 0 0 0-.656.163l-5.348 3.408c-.447.284-.626.832-.4 1.223.053.09.124.166.21.225l13.182 9.085 17.833-11.365-24.82-2.74Z" fill="#029BC5"/><path d="M106.85 10.7 58.318 41.252 29.605 52.677l-14.643 2.911-1.61-2.737L94.245 2.904c2.411-1.494 5.097-2.412 7.786-2.66a14.205 14.205 0 0 1 3.461.117c.994.15 1.937.441 2.801.863.964.479 2.798.534 3.393 1.487.002-.002 1.404 4.372-4.837 7.989Z" fill="#E1E6E9"/><path d="M58.962 37.21 37.966 70.678c-.262.471-.106.997.347 1.176.28.11.62.067.906-.115l5.344-3.39a10.484 10.484 0 0 0 2.674-2.435l40.717-47.869L58.962 37.21ZM5.982 36.092c-.35-.12-.767-.058-1.119.166L.446 39.072c-.602.383-.842 1.12-.536 1.645.058.1.134.188.224.26l12.377 9.913 13.013-8.128-19.542-6.67ZM16.66 52.677l-6.662 9.329c-.098.134-.075.302.051.376.091.053.215.043.316-.024l4.128-2.616a.38.38 0 0 0 .085-.075l9.734-11.835-7.652 4.845ZM104.697.763a14.49 14.49 0 0 0-3.565-.118c-1.181 1.65-1.936 3.505-2.189 5.379-.019.376.285.647.677.605a.83.83 0 0 0 .353-.125l7.608-4.844a9.882 9.882 0 0 0-2.884-.897Z" fill="#029BC5"/><path d="m88.117 9.671 4.967-3.137 4.627 7.87-4.967 3.136-4.627-7.869Z" fill="#D5D6DB"/><path d="M84.992 12.783c-.599.38-.838 1.108-.534 1.628l.492.842c.324.506 1.063.596 1.652.199.56-.378.785-1.065.515-1.572l-.492-.842c-.304-.519-1.035-.633-1.633-.255ZM80.528 15.556c-.599.38-.838 1.108-.534 1.628l.492.841c.324.507 1.063.596 1.651.2.56-.378.786-1.065.516-1.572l-.492-.842c-.304-.52-1.035-.633-1.633-.255ZM76.062 18.33c-.598.379-.837 1.107-.533 1.626l.492.842c.324.507 1.063.596 1.652.199.56-.378.785-1.065.515-1.572l-.492-.842c-.304-.52-1.036-.633-1.634-.254ZM71.597 21.102c-.598.38-.836 1.107-.532 1.627l.492.841c.324.507 1.063.596 1.651.2.56-.378.786-1.065.516-1.572l-.492-.842c-.305-.52-1.036-.634-1.635-.254ZM67.133 23.874c-.598.38-.836 1.108-.533 1.628l.493.842c.304.52 1.035.633 1.633.254.599-.379.838-1.107.534-1.626l-.493-.843c-.303-.52-1.034-.634-1.632-.256l-.002.001ZM62.669 26.647c-.598.38-.837 1.108-.533 1.627l.493.843c.303.519 1.035.633 1.633.254.598-.38.837-1.107.534-1.627l-.493-.842c-.303-.52-1.034-.634-1.633-.256h-.001ZM58.204 29.42c-.598.38-.836 1.107-.533 1.627l.493.842c.304.519 1.036.631 1.634.252.596-.379.835-1.105.533-1.624l-.493-.843c-.303-.52-1.035-.633-1.634-.255ZM53.74 32.192c-.598.38-.837 1.108-.533 1.627l.492.843c.305.519 1.037.631 1.634.252.597-.38.835-1.106.533-1.625l-.493-.842c-.303-.52-1.034-.634-1.633-.255ZM49.276 34.964c-.599.38-.837 1.108-.533 1.628l.492.842c.305.519 1.036.631 1.634.252.597-.379.835-1.106.533-1.624l-.493-.843c-.304-.519-1.035-.633-1.633-.255ZM44.81 37.737c-.599.38-.838 1.108-.534 1.627v.001l.493.842c.305.52 1.036.632 1.634.252.597-.379.835-1.105.533-1.624l-.493-.842c-.303-.52-1.034-.634-1.633-.256ZM40.346 40.51c-.598.378-.837 1.106-.533 1.626l.493.843c.305.519 1.036.631 1.634.252.597-.379.835-1.106.533-1.624l-.493-.843c-.304-.52-1.035-.633-1.633-.255Z" fill="#3A556A"/></g><defs><clipPath id="a"><path fill="#fff" d="M0 0h112v72H0z"/></clipPath></defs></svg>