<svg xmlns="http://www.w3.org/2000/svg" width="202" height="66" fill="none"><rect width="201.869" height="65.238" x=".131" y=".762" fill="#080809" rx="17.5"/><path fill="#fff" d="M44.117 45.496c-4.807-.025-8.784-9.086-8.784-13.7 0-7.538 6.124-9.188 8.484-9.188 1.064 0 2.2.386 3.201.727.7.238 1.425.484 1.828.484.241 0 .81-.21 1.311-.393 1.07-.393 2.402-.882 3.953-.882h.009c1.158 0 4.668.235 6.779 3.161l.494.686-.711.496c-1.017.708-2.871 2-2.871 4.559 0 3.03 2.1 4.196 3.11 4.757.445.247.906.502.906 1.06 0 .365-3.15 8.188-7.723 8.188-1.119 0-1.91-.31-2.608-.584-.706-.278-1.315-.517-2.32-.517-.511 0-1.156.223-1.839.46-.933.321-1.99.686-3.188.686h-.031Zm10.477-29.822c.12 3.965-2.952 6.716-6.02 6.543-.505-3.164 3.068-6.543 6.02-6.543Zm24.326 9.319h2.12l-2.883-7.828h-2.47l-2.883 7.828h2.12l.423-1.23h3.15l.423 1.23Zm-2.991-2.907.993-2.874.993 2.874H75.93Zm9.401-2.684-1.26 3.545-1.26-3.545H80.8l2.24 5.591h2.06l2.24-5.591h-2.01Zm6.837 0v.525c-.4-.425-.993-.682-1.805-.682-1.586 0-2.894 1.286-2.894 2.953 0 1.666 1.308 2.952 2.894 2.952.812 0 1.405-.257 1.805-.682v.525h1.817v-5.591h-1.817Zm-1.441 4.16c-.836 0-1.442-.526-1.442-1.364 0-.84.606-1.365 1.442-1.365.835 0 1.441.526 1.441 1.365 0 .838-.606 1.364-1.441 1.364Zm4.591 1.431h1.817V16.83h-1.817v8.164Zm4.054-6.083c.594 0 1.091-.459 1.091-1.007 0-.548-.497-1.007-1.09-1.007-.594 0-1.09.459-1.09 1.007 0 .548.496 1.007 1.09 1.007Zm-.908 6.083h1.817v-5.591h-1.817v5.591Zm6.768-5.748c-.812 0-1.405.257-1.805.682v-2.762h-1.817v7.828h1.817v-.525c.4.425.993.682 1.805.682 1.587 0 2.895-1.286 2.895-2.952 0-1.667-1.308-2.953-2.895-2.953Zm-.363 4.317c-.836 0-1.442-.526-1.442-1.364 0-.84.606-1.365 1.442-1.365.835 0 1.441.526 1.441 1.365 0 .838-.606 1.364-1.441 1.364Zm4.288 1.431h1.817V16.83h-1.817v8.164Zm4.769-2.124h4.3c.048-.213.073-.437.073-.671 0-1.69-1.308-2.953-3.077-2.953-1.914 0-3.222 1.286-3.222 2.953 0 1.666 1.284 2.952 3.355 2.952 1.151 0 2.047-.391 2.641-1.152l-1.454-.772c-.242.246-.666.425-1.162.425-.667 0-1.224-.2-1.454-.782Zm-.036-1.253c.169-.57.63-.884 1.32-.884.545 0 1.09.235 1.284.884h-2.604Zm11.374 3.534c1.781 0 3.21-1.286 3.21-2.952 0-1.667-1.429-2.953-3.21-2.953-1.78 0-3.21 1.286-3.21 2.953 0 1.666 1.43 2.952 3.21 2.952Zm0-1.633c-.787 0-1.393-.526-1.393-1.32 0-.793.606-1.32 1.393-1.32s1.393.527 1.393 1.32c0 .794-.606 1.32-1.393 1.32Zm7.786-4.272c-.799 0-1.405.268-1.732.682v-.525H129.5v5.591h1.817V21.94c0-.794.461-1.152 1.127-1.152.581 0 1.053.325 1.053 1.018v3.187h1.817V21.56c0-1.51-1.041-2.315-2.265-2.315Zm10.09 1.767v-1.61h-1.248v-1.566l-1.817.503v1.063h-.969v1.61h.969v1.98c0 1.565.691 2.225 3.065 2.001v-1.52c-.8.044-1.248 0-1.248-.482v-1.979h1.248Zm4.577-1.767c-.799 0-1.405.268-1.732.682v-2.762h-1.816v7.828h1.816V21.94c0-.794.461-1.152 1.127-1.152.581 0 1.054.325 1.054 1.018v3.187h1.816V21.56c0-1.51-1.041-2.315-2.265-2.315Zm5.136 3.624h4.3c.048-.213.073-.437.073-.671 0-1.69-1.309-2.953-3.077-2.953-1.914 0-3.222 1.286-3.222 2.953 0 1.666 1.284 2.952 3.355 2.952 1.151 0 2.047-.391 2.641-1.152l-1.454-.772c-.242.246-.666.425-1.163.425-.666 0-1.223-.2-1.453-.782Zm-.036-1.253c.169-.57.63-.884 1.32-.884.545 0 1.09.235 1.284.884h-2.604ZM82.998 45.497h3.533l-4.805-13.048h-4.118l-4.804 13.048h3.532l.707-2.05h5.249l.706 2.05Zm-4.986-4.846 1.655-4.79 1.656 4.79h-3.311Zm15.658-4.735c-1.352 0-2.34.429-3.007 1.137v-.876h-3.028v13.048h3.028V44.62c.666.708 1.655 1.137 3.008 1.137 2.644 0 4.824-2.144 4.824-4.921s-2.18-4.92-4.824-4.92Zm-.605 7.195c-1.393 0-2.402-.876-2.402-2.274 0-1.398 1.01-2.274 2.402-2.274 1.393 0 2.402.876 2.402 2.274 0 1.398-1.009 2.274-2.402 2.274Zm13.183-7.195c-1.352 0-2.342.429-3.008 1.137v-.876h-3.028v13.048h3.028V44.62c.666.708 1.656 1.137 3.008 1.137 2.645 0 4.825-2.144 4.825-4.921s-2.18-4.92-4.825-4.92Zm-.605 7.195c-1.393 0-2.403-.876-2.403-2.274 0-1.398 1.01-2.274 2.403-2.274 1.392 0 2.402.876 2.402 2.274 0 1.398-1.01 2.274-2.402 2.274Zm7.147 2.386h3.028V31.89h-3.028v13.607Zm7.949-3.542h7.166c.081-.354.121-.727.121-1.118 0-2.815-2.18-4.92-5.127-4.92-3.19 0-5.37 2.143-5.37 4.92s2.14 4.92 5.592 4.92c1.917 0 3.411-.652 4.4-1.92l-2.422-1.285c-.404.41-1.11.708-1.938.708-1.11 0-2.039-.335-2.422-1.305Zm-.061-2.087c.283-.95 1.05-1.473 2.2-1.473.909 0 1.817.392 2.14 1.473h-4.34Zm19.159 5.89c3.068 0 5.249-1.491 5.249-4.008 0-2.758-2.403-3.448-4.543-4.044-2.2-.616-2.543-1.026-2.543-1.622 0-.522.505-.988 1.514-.988 1.292 0 1.958.578 2.443 1.51l2.725-1.473c-1.03-1.92-2.847-2.945-5.168-2.945-2.443 0-4.744 1.454-4.744 3.97 0 2.498 2.059 3.43 4.159 3.97 2.119.541 2.927.858 2.927 1.66 0 .503-.384 1.062-1.918 1.062-1.595 0-2.463-.727-2.968-1.808l-2.785 1.491c.787 1.92 2.684 3.225 5.652 3.225Zm12.381-6.897v-2.684h-2.079v-2.61l-3.028.84v1.77h-1.615v2.684h1.615v3.3c0 2.609 1.15 3.709 5.107 3.336v-2.535c-1.333.074-2.079 0-2.079-.802v-3.299h2.079Zm6.362 6.897c2.968 0 5.35-2.144 5.35-4.921s-2.382-4.92-5.35-4.92c-2.967 0-5.35 2.143-5.35 4.92s2.383 4.92 5.35 4.92Zm0-2.722c-1.312 0-2.321-.876-2.321-2.199s1.009-2.2 2.321-2.2c1.312 0 2.322.877 2.322 2.2 0 1.323-1.01 2.2-2.322 2.2Zm10.09-5.2v-1.659h-3.028v9.32h3.028v-4.213c0-1.845 1.777-2.311 3.028-2.125v-3.168c-1.271 0-2.624.596-3.028 1.845Zm6.853 4.119h7.167c.08-.354.121-.727.121-1.118 0-2.815-2.181-4.92-5.128-4.92-3.189 0-5.37 2.143-5.37 4.92s2.14 4.92 5.592 4.92c1.918 0 3.412-.652 4.401-1.92l-2.422-1.285c-.404.41-1.111.708-1.938.708-1.111 0-2.039-.335-2.423-1.305Zm-.06-2.087c.282-.95 1.049-1.473 2.2-1.473.908 0 1.817.392 2.14 1.473h-4.34Z"/></svg>