<svg xmlns="http://www.w3.org/2000/svg" width="216" height="66" fill="none"><rect width="216" height="65.238" y=".762" fill="#080809" rx="17.5"/><g clip-path="url(#a)"><path fill="#2196F3" d="M57.548 32.452 37.273 50.48c-.95-.6-1.513-1.596-1.503-2.658V17.083c-.01-1.062.553-2.058 1.503-2.657l20.275 18.026Z"/><path fill="#4CAF50" d="m64.642 26.156-7.094 6.296-20.275-18.026c.076-.055.156-.106.238-.153a3.719 3.719 0 0 1 3.502-.05l23.629 11.933Z"/><path fill="#F0BB1F" d="M73.24 32.452c.013 1.199-.693 2.306-1.834 2.878l-6.764 3.419-7.094-6.297 7.094-6.296 6.764 3.419c1.141.572 1.847 1.679 1.834 2.877Z"/><path fill="#F15A2B" d="m64.642 38.749-23.63 11.933a3.769 3.769 0 0 1-3.5-.05 2.697 2.697 0 0 1-.24-.153l20.276-18.027 7.094 6.297Z"/></g><path fill="#fff" d="M96.946 22.906h-5.669v2.087h3.02c-.404 1-1.389 1.61-2.89 1.61-2.197 0-3.553-1.296-3.553-3.07 0-1.835 1.42-3.132 3.326-3.132 1.276 0 2.293.537 2.762 1.222l2.196-1.163c-.953-1.401-2.778-2.386-4.942-2.386-3.326 0-5.927 2.416-5.927 5.443 0 2.997 2.552 5.413 6.105 5.413 3.165 0 5.572-1.938 5.572-5.13v-.894Zm3.233 3.519v-1.85h4.037V22.31h-4.037v-1.73h4.441v-2.296h-7.025v10.438h7.106v-2.296h-4.522Z"/><path fill="#fff" d="M112.941 18.283h-8.397v2.297h2.907v8.141h2.583V20.58h2.907v-2.297Zm3.554 0v10.438h2.584V18.283h-2.584Zm11.309 0h-8.398v2.297h2.907v8.141h2.584V20.58h2.907v-2.297Zm8.947 10.647c3.247 0 5.879-2.356 5.879-5.428s-2.632-5.427-5.879-5.427c-3.246 0-5.878 2.355-5.878 5.427 0 3.072 2.632 5.428 5.878 5.428Zm0-2.326c-1.841 0-3.294-1.238-3.294-3.102 0-1.864 1.453-3.101 3.294-3.101 1.842 0 3.295 1.237 3.295 3.101 0 1.864-1.453 3.102-3.295 3.102Zm12.825-8.321v5.667l-4.361-5.667h-1.938v10.438h2.584v-5.666l4.361 5.666h1.938V18.283h-2.584Zm-52.63 22.353v.402c0 1.303-.501 2.401-1.502 3.296-1.002.884-2.32 1.327-3.957 1.327-1.722 0-3.144-.517-4.263-1.55-1.12-1.045-1.68-2.322-1.68-3.833 0-1.511.555-2.784 1.663-3.818 1.11-1.043 2.514-1.565 4.216-1.565 1.033 0 1.98.228 2.842.686.872.457 1.545 1.068 2.019 1.834l-.76.417c-.376-.656-.936-1.183-1.68-1.58a4.992 4.992 0 0 0-2.421-.597c-1.465 0-2.67.447-3.618 1.342-.937.885-1.405 1.978-1.405 3.28 0 1.303.474 2.401 1.421 3.296.948.885 2.17 1.327 3.666 1.327 1.324 0 2.396-.333 3.214-.999.818-.666 1.276-1.506 1.373-2.52h-4.797v-.745h5.669Zm11.463 3.459c-1.13 1.044-2.509 1.566-4.134 1.566-1.626 0-3.004-.522-4.135-1.566-1.13-1.054-1.695-2.326-1.695-3.817s.565-2.759 1.695-3.803c1.131-1.053 2.509-1.58 4.135-1.58 1.625 0 3.004.527 4.134 1.58 1.131 1.044 1.696 2.312 1.696 3.803 0 1.49-.565 2.763-1.696 3.817Zm-7.671-.537c.969.895 2.148 1.342 3.537 1.342 1.389 0 2.562-.447 3.52-1.342.969-.904 1.454-1.998 1.454-3.28 0-1.283-.485-2.371-1.454-3.266-.958-.904-2.131-1.357-3.52-1.357-1.389 0-2.568.453-3.537 1.357-.958.895-1.437 1.983-1.437 3.266 0 1.282.479 2.376 1.437 3.28Zm20.856.537c-1.131 1.044-2.509 1.566-4.135 1.566-1.625 0-3.003-.522-4.134-1.566-1.13-1.054-1.696-2.326-1.696-3.817s.566-2.759 1.696-3.803c1.131-1.053 2.509-1.58 4.134-1.58 1.626 0 3.004.527 4.135 1.58 1.13 1.044 1.695 2.312 1.695 3.803 0 1.49-.565 2.763-1.695 3.817Zm-7.671-.537c.969.895 2.147 1.342 3.536 1.342 1.389 0 2.563-.447 3.521-1.342.969-.904 1.453-1.998 1.453-3.28 0-1.283-.484-2.371-1.453-3.266-.958-.904-2.132-1.357-3.521-1.357-1.389 0-2.567.453-3.536 1.357-.959.895-1.438 1.983-1.438 3.266 0 1.282.479 2.376 1.438 3.28Zm22.293-2.922v.402c0 1.303-.501 2.401-1.502 3.296-1.002.884-2.321 1.327-3.957 1.327-1.723 0-3.144-.517-4.264-1.55-1.119-1.045-1.679-2.322-1.679-3.833 0-1.511.554-2.784 1.663-3.818 1.109-1.043 2.514-1.565 4.215-1.565 1.034 0 1.981.228 2.843.686.872.457 1.545 1.068 2.018 1.834l-.759.417c-.376-.656-.936-1.183-1.679-1.58a4.993 4.993 0 0 0-2.423-.597c-1.464 0-2.67.447-3.617 1.342-.937.885-1.405 1.978-1.405 3.28 0 1.303.474 2.401 1.421 3.296.947.885 2.169 1.327 3.666 1.327 1.324 0 2.395-.333 3.214-.999.818-.666 1.276-1.506 1.372-2.52h-4.796v-.745h5.669Zm3.001 4.115h5.329v.746h-6.185V35.059h.856v9.692Zm7.964 0h5.652v.746h-6.508V35.059h6.427v.745h-5.571v4.056h5.168v.746h-5.168v4.145Zm15.904-9.692c1.012 0 1.852.308 2.519.924.668.617 1.002 1.387 1.002 2.312 0 .924-.334 1.694-1.002 2.31-.667.607-1.507.91-2.519.91h-2.988v3.982h-.856V35.059h3.844Zm0 5.71c.775 0 1.41-.233 1.906-.7.506-.467.759-1.059.759-1.775 0-.725-.253-1.322-.759-1.789-.496-.467-1.131-.7-1.906-.7h-2.988v4.965h2.988Zm6.491 3.982h5.329v.746h-6.185V35.059h.856v9.692Zm15.03.746-1.098-2.654h-5.669l-1.098 2.654h-.904l4.393-10.438h.904l4.376 10.438h-.904Zm-6.444-3.4h5.039l-2.519-6.069-2.52 6.069Zm15.392-7.038-4.118 6.143v4.295h-.856v-4.295l-4.118-6.143h.969l3.585 5.383 3.569-5.383h.969Z"/><defs><clipPath id="a"><path fill="#fff" d="M34.318 13.81h40.374v37.279H34.318z"/></clipPath></defs></svg>