<svg xmlns="http://www.w3.org/2000/svg" width="33" height="30" fill="none"><g fill="#fff" clip-path="url(#a)"><path d="M28.082.095H5.245C2.637.095.514 2.055.514 4.464V25.55c0 2.409 2.123 4.368 4.731 4.368h22.837c2.609 0 4.731-1.96 4.731-4.368V4.464c0-2.409-2.122-4.369-4.731-4.369ZM30.92 25.55c0 1.445-1.274 2.62-2.84 2.62H5.246c-1.565 0-2.838-1.175-2.838-2.62V4.464c0-1.445 1.273-2.621 2.838-2.621h22.837c1.565 0 2.839 1.176 2.839 2.62V25.55Z"/><path d="M27.072 3.648c-1.043 0-1.892.784-1.892 1.748 0 .963.849 1.747 1.892 1.747 1.044 0 1.893-.784 1.893-1.747 0-.964-.85-1.748-1.893-1.748ZM16.663 7.143c-4.695 0-8.516 3.528-8.516 7.864s3.82 7.863 8.516 7.863c4.697 0 8.517-3.527 8.517-7.863s-3.82-7.864-8.517-7.864Zm0 13.98c-3.652 0-6.623-2.744-6.623-6.116 0-3.373 2.971-6.116 6.623-6.116 3.653 0 6.624 2.743 6.624 6.116 0 3.372-2.97 6.116-6.623 6.116Z"/></g><defs><clipPath id="a"><path fill="#fff" d="M.514.095h32.299v29.823H.514z"/></clipPath></defs></svg>