<svg xmlns="http://www.w3.org/2000/svg" width="34" height="26" fill="none"><path fill="#080809" d="M33.065 3.692a14.71 14.71 0 0 1-3.815.965c1.373-.756 2.42-1.946 2.913-3.379a13.918 13.918 0 0 1-4.199 1.48C26.75 1.563 25.017.823 23.127.823c-3.665 0-6.617 2.748-6.617 6.116 0 .484.044.95.154 1.394C11.159 8.085 6.287 5.65 3.015 1.938a5.8 5.8 0 0 0-.906 3.09c0 2.118 1.18 3.995 2.941 5.081a6.96 6.96 0 0 1-2.992-.753v.067c0 2.972 2.296 5.44 5.305 6.008a7.126 7.126 0 0 1-1.736.201c-.424 0-.852-.022-1.253-.104.858 2.421 3.292 4.201 6.187 4.259-2.253 1.627-5.113 2.608-8.21 2.608-.543 0-1.064-.023-1.585-.084 2.934 1.746 6.41 2.744 10.158 2.744 12.185 0 18.847-9.32 18.847-17.399 0-.27-.01-.53-.024-.79a12.699 12.699 0 0 0 3.318-3.174Z"/></svg>